<?xml version="1.0" encoding="UTF-8"?>
<svg id="Layer_2" data-name="Layer 2" xmlns="http://www.w3.org/2000/svg" viewBox="0 0 1174.21 744.13">
  <defs>
    <style>
      .cls-1 {
        fill: #181919;
      }

      .cls-2 {
        fill: #e41b22;
      }

      .cls-3 {
        fill: #1376d3;
      }

      .cls-4 {
        fill: #031b35;
      }

      .cls-5 {
        fill: #fbfafb;
      }

      .cls-6 {
        fill: #fcc90e;
      }
    </style>
  </defs>
  <g id="foreground">
    <g>
      <path class="cls-4" d="M837.16,680.61c-119.06,62.12-251.06,81.52-381.49,45.51-108.03-29.82-203.06-90.26-285.99-164.53-48.65-44.01-92.67-92.1-132.94-143.66L0,369.38C87.6,247.02,201.86,131.12,336.84,62.29,467.39-4.28,610.59-18.95,750.97,25.35c99.59,31.43,188.89,93.15,265.46,163.07,59.39,55.24,109.28,114.97,157.78,180.85-60.41,83.73-126.56,159.98-207.09,225.42-40.63,32.8-83.64,61.75-129.96,85.92ZM673.73,650.53c60.52-19.73,111.63-59.33,147.45-110.33,71.3-101.52,71.19-236.94,1.35-339.1-36.71-53.71-90.28-94.32-153.25-113.11-67.29-20.08-139.15-14.45-201.5,15.35-142.55,68.12-206.12,236.03-144.78,381.89,29.48,70.1,86.22,127.47,157.65,157.2,60.74,25.28,129.82,28.74,193.09,8.11Z"/>
      <g>
        <path class="cls-5" d="M673.73,650.53c-63.27,20.63-132.35,17.18-193.09-8.11-71.43-29.73-128.17-87.1-157.65-157.2-61.34-145.86,2.23-313.77,144.78-381.89,62.35-29.8,134.21-35.43,201.5-15.35,62.97,18.79,116.54,59.41,153.25,113.11,69.84,102.16,69.95,237.59-1.35,339.1-35.82,51-86.93,90.6-147.45,110.33ZM657.62,601.62c94.11-30.14,158.86-115.17,165.73-213.03,4.73-67.33-17.06-134.06-62.96-183.94-67.55-73.42-172.07-97.75-264.44-58.1-119.55,51.31-175.2,189.66-129.85,310.45,26.51,70.6,83.84,125.27,156.63,146.39,43.69,12.68,91.14,12.25,134.89-1.76Z"/>
        <g>
          <path class="cls-1" d="M657.62,601.62c-43.76,14.01-91.2,14.44-134.89,1.76-72.79-21.12-130.13-75.79-156.63-146.39-45.35-120.79,10.3-259.14,129.85-310.45,92.38-39.65,196.9-15.31,264.44,58.1,45.9,49.89,67.69,116.61,62.96,183.94-6.87,97.86-71.61,182.88-165.73,213.03ZM768.71,370.2c0-100.2-81.23-181.43-181.43-181.43s-181.43,81.23-181.43,181.43,81.23,181.43,181.43,181.43,181.43-81.23,181.43-181.43Z"/>
          <path class="cls-3" d="M768.71,370.2c0,100.2-81.23,181.43-181.43,181.43s-181.43-81.23-181.43-181.43,81.23-181.43,181.43-181.43,181.43,81.23,181.43,181.43ZM711.96,370.13c0-68.85-55.81-124.67-124.67-124.67s-124.67,55.81-124.67,124.67,55.81,124.67,124.67,124.67,124.67-55.81,124.67-124.67Z"/>
          <g>
            <path class="cls-2" d="M711.96,370.13c0,68.85-55.81,124.67-124.67,124.67s-124.67-55.81-124.67-124.67,55.81-124.67,124.67-124.67,124.67,55.81,124.67,124.67ZM654.93,370.13c0-37.37-30.3-67.67-67.67-67.67s-67.67,30.3-67.67,67.67,30.3,67.67,67.67,67.67,67.67-30.3,67.67-67.67Z"/>
            <circle class="cls-6" cx="587.26" cy="370.13" r="67.67"/>
          </g>
        </g>
      </g>
    </g>
  </g>
</svg>