<?xml version="1.0" encoding="utf-8"?>
<!-- Generator: Adobe Illustrator 27.0.0, SVG Export Plug-In . SVG Version: 6.00 Build 0)  -->
<svg version="1.1" id="Layer_1" xmlns="http://www.w3.org/2000/svg" xmlns:xlink="http://www.w3.org/1999/xlink" x="0px" y="0px"
	 viewBox="0 0 820.6 122" style="enable-background:new 0 0 820.6 122;" xml:space="preserve">
<style type="text/css">
	.st0{fill:#AA182C;}
	.st1{fill:#1C355E;}
</style>
<g>
	<path class="st0" d="M775.2,92.2V93H773v5.7h-0.9V93h-2.2v-0.8H775.2z"/>
	<path class="st0" d="M776,92.2h1.3l1.9,5.5l1.8-5.5h1.2v6.5h-0.8v-3.8c0-0.1,0-0.4,0-0.7s0-0.6,0-1l-1.8,5.4h-0.9l-1.9-5.4v0.2
		c0,0.2,0,0.4,0,0.7c0,0.3,0,0.6,0,0.7v3.8H776V92.2z"/>
</g>
<path class="st0" d="M347.9,85.4h-28l-5.8,13.2H295l34.4-75h21.2l19.9,75h-19.3L347.9,85.4z M337.9,43.8L326,71.3h18.5L337.9,43.8z"
	/>
<path class="st0" d="M416.5,23.7c18.4,0,26.5,10.6,25.3,23.6c-0.9,9.4-6.9,18.3-18.8,21.7l14.4,29.7h-20.6L404,70.3h-4.4l-2.7,28.3
	h-18.3l7.2-75H416.5z M414,38.8h-11.3l-1.8,18.6h11.3c6.8,0,10.4-3.5,10.9-9.4C423.7,42.5,420.8,38.8,414,38.8z"/>
<path class="st0" d="M488.1,22.8c17.8,0,30.3,10,33,26.3H501c-2.5-6.4-7.8-9.6-14.8-9.6c-11.2,0-19.7,8.3-21,21.6
	s5.6,21.6,16.8,21.6c6.9,0,12.9-3.2,16.6-9.6h20.1c-5.8,16.2-20.3,26.2-38.1,26.2c-22.1,0-36.2-15.7-34-38.1
	C448.8,38.6,465.9,22.8,488.1,22.8z"/>
<path class="st0" d="M575,67.8h-28.4l-3,30.9h-18.3l7.2-75h18.3L548,53h28.4l2.8-29.4h18.3l-7.2,75h-18.3L575,67.8z"/>
<path class="st0" d="M655.2,38.3h-27.7l-1.5,15.2h24.5l-1.4,14.1h-24.5L623.2,84h27.7l-1.4,14.6h-45.9l7.2-75h45.9L655.2,38.3z"/>
<path class="st0" d="M699.2,23.7c18.4,0,26.5,10.6,25.3,23.6c-0.9,9.4-6.9,18.3-18.8,21.7l14.4,29.7h-20.6l-12.9-28.3h-4.4
	l-2.7,28.3h-18.3l7.2-75H699.2z M696.6,38.8h-11.3l-1.8,18.6h11.3c6.8,0,10.4-3.5,10.9-9.4C706.3,42.5,703.5,38.8,696.6,38.8z"/>
<path class="st0" d="M727,23.7h20.7l11.5,31.4l17.4-31.4h20.5l-30.8,50.2L764,98.7h-18.3l2.4-24.8L727,23.7z"/>
<path class="st1" d="M29.8,23.6h18.3l-4.3,44.9c-0.9,8.9,3,14,11.7,14c8.7,0,13.7-5.1,14.6-14l4.3-44.9h18.3l-4.3,44.8
	c-2,20.7-17.5,31-34.8,31c-17.4,0-30-10.3-28-31L29.8,23.6z"/>
<path class="st1" d="M121,99.4c-16.1,0-28-8-27.1-23.2h19.5c0,5.8,3.3,8.6,8.5,8.6c5.3,0,9-2.7,9.4-7.1c1.3-13.9-36.9-6.4-34.1-33
	c1.4-14.2,13.8-22.1,29.5-22.1c16.4,0,26.6,8.1,26,22.4h-19.8c0.1-4.8-3-7.7-7.9-7.8c-4.4-0.1-7.9,2.1-8.4,6.8
	c-1.3,13,36.4,7.2,34,32.3C149.3,89,138.5,99.4,121,99.4z"/>
<path class="st1" d="M201.1,85.4h-28l-5.8,13.3h-19.1l34.4-75h21.2l19.9,75h-19.4L201.1,85.4z M191.1,43.8l-11.8,27.5h18.5
	L191.1,43.8z"/>
<polygon class="st1" points="300.8,52.2 270.9,52.2 261.7,23.8 252.4,52.2 222.5,52.2 246.7,69.8 237.5,98.2 261.7,80.7 285.9,98.2 
	276.6,69.8 "/>
</svg>
