<?xml version="1.0" encoding="UTF-8"?>
<svg id="Layer_1" xmlns="http://www.w3.org/2000/svg" version="1.1" viewBox="0 0 478 338">
  <!-- Generator: Adobe Illustrator 29.8.0, SVG Export Plug-In . SVG Version: 2.1.1 Build 43)  -->
  <defs>
    <style>
      .st0 {
        fill: #010101;
      }

      .st1 {
        fill: #fff;
      }

      .st2 {
        fill: #fee554;
      }

      .st3 {
        fill: #05b3e3;
      }

      .st4 {
        fill: #f05359;
      }
    </style>
  </defs>
  <g>
    <path class="st1" d="M419.5,210.5c-39.5,37.2-105.6,85.8-180.5,85.8s-140.9-48.7-180.5-85.8c-23.9-22.5-23.9-60.5,0-83,39.5-37.2,105.6-85.8,180.5-85.8s140.9,48.7,180.5,85.8c23.9,22.5,23.9,60.5,0,83Z"/>
    <path d="M433.2,112.9c-26.2-24.7-53.5-44.8-81.1-59.8-38.2-20.9-76.3-31.4-113.1-31.4s-74.8,10.6-113.1,31.4c-27.6,15.1-54.9,35.2-81.1,59.8-15.4,14.5-24.3,34.9-24.3,56.1s8.8,41.6,24.3,56.1c26.2,24.7,53.5,44.8,81.1,59.8,38.2,20.9,76.3,31.4,113.1,31.4s74.8-10.6,113.1-31.4c27.6-15.1,54.9-35.2,81.1-59.8,15.4-14.5,24.3-34.9,24.3-56.1s-8.8-41.6-24.3-56.1ZM419.5,210.5c-39.5,37.2-105.6,85.8-180.5,85.8s-140.9-48.7-180.5-85.8c-23.9-22.5-23.9-60.5,0-83,39.5-37.2,105.6-85.8,180.5-85.8s140.9,48.7,180.5,85.8c23.9,22.5,23.9,60.5,0,83Z"/>
  </g>
  <path class="st0" d="M238.7,58.4c-61,0-110.4,49.4-110.4,110.4s49.4,110.4,110.4,110.4,110.4-49.4,110.4-110.4-49.4-110.4-110.4-110.4h0ZM238.7,251.7c-45.7,0-82.8-37.1-82.8-82.8s37.1-82.8,82.8-82.8,82.8,37.1,82.8,82.8-37.1,82.8-82.8,82.8Z"/>
  <path class="st3" d="M238.7,86c-45.7,0-82.8,37.1-82.8,82.8s37.1,82.8,82.8,82.8,82.8-37.1,82.8-82.8-37.1-82.8-82.8-82.8ZM238.7,223.7c-30.3,0-54.9-24.6-54.9-54.9s24.6-54.9,54.9-54.9,54.9,24.6,54.9,54.9-24.6,54.9-54.9,54.9h0Z"/>
  <path class="st4" d="M238.7,113.9c-30.3,0-54.9,24.6-54.9,54.9s24.6,54.9,54.9,54.9,54.9-24.6,54.9-54.9-24.6-54.9-54.9-54.9h0ZM238.7,196.1c-15.1,0-27.3-12.2-27.3-27.3s12.2-27.3,27.3-27.3,27.3,12.2,27.3,27.3-12.2,27.3-27.3,27.3Z"/>
  <circle class="st2" cx="238.7" cy="168.8" r="27.3"/>
</svg>