<?xml version="1.0" encoding="UTF-8"?>
<svg xmlns="http://www.w3.org/2000/svg" version="1.1" viewBox="0 0 500 500">
  <defs>
    <style>
      .st0 { fill: #010101; }
      .st1 { fill: #231f20; }
      .st2 { fill: #fff; }
      .st3 { fill: #fee554; }
      .st4 { fill: #05b3e3; }
      .st5 { fill: #f05359; }
    </style>
  </defs>
  <g>
    <path class="st2" d="M250,387.3c-42.5,0-109.4-15.4-187.3-88.6-13.6-12.8-21.1-30.1-21.1-48.8s7.5-36,21.1-48.8c77.9-73.2,144.9-88.6,187.3-88.6s109.4,15.4,187.3,88.6c13.6,12.8,21.1,30.1,21.1,48.8s-7.5,36-21.1,48.8c-77.9,73.2-144.9,88.6-187.3,88.6Z"/>
    <path class="st1" d="M250,122.7c74.8,0,140.9,48.7,180.5,85.8,23.9,22.5,23.9,60.5,0,83-39.5,37.2-105.6,85.8-180.5,85.8s-140.9-48.7-180.5-85.8c-23.9-22.5-23.9-60.5,0-83,39.5-37.2,105.6-85.8,180.5-85.8M250,102.7c-36.8,0-74.8,10.6-113.1,31.4-27.6,15.1-54.9,35.2-81.1,59.8-15.4,14.5-24.3,34.9-24.3,56.1s8.8,41.6,24.3,56.1c26.2,24.7,53.5,44.8,81.1,59.8,38.2,20.9,76.3,31.4,113.1,31.4s74.8-10.6,113.1-31.4c27.6-15.1,54.9-35.2,81.1-59.8,15.4-14.5,24.3-34.9,24.3-56.1s-8.8-41.6-24.3-56.1c-26.2-24.7-53.5-44.8-81.1-59.8-38.2-20.9-76.3-31.4-113.1-31.4h0Z"/>
  </g>
  <path class="st0" d="M249.7,139.4c-61,0-110.4,49.4-110.4,110.4s49.4,110.4,110.4,110.4,110.4-49.4,110.4-110.4-49.4-110.4-110.4-110.4ZM249.7,332.7c-45.7,0-82.8-37.1-82.8-82.8s37.1-82.8,82.8-82.8,82.8,37.1,82.8,82.8-37.1,82.8-82.8,82.8Z"/>
  <path class="st4" d="M249.7,167c-45.7,0-82.8,37.1-82.8,82.8s37.1,82.8,82.8,82.8,82.8-37.1,82.8-82.8-37.1-82.8-82.8-82.8ZM249.7,304.7c-30.3,0-54.9-24.6-54.9-54.9s24.6-54.9,54.9-54.9,54.9,24.6,54.9,54.9-24.6,54.9-54.9,54.9Z"/>
  <path class="st5" d="M249.7,194.9c-30.3,0-54.9,24.6-54.9,54.9s24.6,54.9,54.9,54.9,54.9-24.6,54.9-54.9-24.6-54.9-54.9-54.9ZM249.7,277.1c-15.1,0-27.3-12.2-27.3-27.3s12.2-27.3,27.3-27.3,27.3,12.2,27.3,27.3-12.2,27.3-27.3,27.3Z"/>
  <circle class="st3" cx="249.7" cy="249.8" r="27.3"/>
</svg>